<svg xmlns="http://www.w3.org/2000/svg" xmlns:xlink="http://www.w3.org/1999/xlink" width="121.6748" height="45" viewBox="0 0 121.6748 45">
  <g style="isolation: isolate">
    <g>
      <rect x="72.3318" y="8.2694" width="49.343" height="28.533" rx="14.2665" fill="#f4fff4"/>
      <g>
        <image width="44" height="45" transform="translate(66.6614)" opacity="0.75" xlink:href="footer-placeholder1.png" style="mix-blend-mode: multiply"/>
        <circle cx="86.6226" cy="22.5359" r="12.2816" fill="#272727"/>
      </g>
      <path d="M4.954,44.8291H39.6323a4.954,4.954,0,0,0,4.954-4.9541V5.1968a4.954,4.954,0,0,0-4.954-4.954H4.954A4.954,4.954,0,0,0,0,5.1968V39.875A4.954,4.954,0,0,0,4.954,44.8291Z" fill="#f4fff4" fill-rule="evenodd"/>
      <path d="M38.3938,38.6365H31.7774V27.3674c0-3.09-1.174-4.8163-3.6195-4.8163-2.66,0-4.05,1.7968-4.05,4.8163V38.6365H17.7313V17.1691h6.3763v2.8916A7.49,7.49,0,0,1,30.58,16.5132c4.5535,0,7.8135,2.7806,7.8135,8.5315ZM10.1244,14.3581a3.9615,3.9615,0,1,1,3.9308-3.9614A3.9466,3.9466,0,0,1,10.1244,14.3581ZM6.832,38.6365h6.6488V17.1691H6.832Z" fill="#272727" fill-rule="evenodd"/>
    </g>
  </g>
</svg>
