<svg xmlns="http://www.w3.org/2000/svg" width="169.4904" height="169.4904" viewBox="0 0 169.4904 169.4904">
  <g>
    <path d="M0,21.7076V147.7829A21.7074,21.7074,0,0,0,21.7076,169.49H147.7829A21.7078,21.7078,0,0,0,169.49,147.7829V21.7076A21.7074,21.7074,0,0,0,147.7829,0H21.7076A21.7071,21.7071,0,0,0,0,21.7076Zm130.6205,1.9158c10.9475,5.5238,16.5063,16.9512,16.5063,33.9623,0,12.4672,3.2792,20.21,10.0277,23.6647A3.6876,3.6876,0,0,1,159.164,84.53v1.15a3.6875,3.6875,0,0,1-2.0095,3.2792c-6.7485,3.4543-10.0277,11.1975-10.0277,23.6647,0,17.0012-5.5588,28.4236-16.5063,33.9623a3.6759,3.6759,0,0,1-4.9789-1.6946l-1.72-3.5892a3.6426,3.6426,0,0,1-.37-1.59,3.68,3.68,0,0,1,2.0295-3.2943c6.5485-3.3142,9.8678-11.3174,9.8678-23.7946,0-12.2972,2.8393-21.5251,8.4581-27.5238-5.6188-5.9836-8.4581-15.2165-8.4581-27.5138,0-12.4721-3.3193-20.4853-9.8778-23.8046a3.6869,3.6869,0,0,1-2.02-3.2892,3.6323,3.6323,0,0,1,.37-1.5947l1.72-3.5792a3.6762,3.6762,0,0,1,4.9789-1.6946ZM64.7954,135.2682V34.9409a3.6854,3.6854,0,0,1,3.6891-3.6842H82.2414c14.7467,0,27.4138,5.4987,37.6515,16.3413,10.1777,10.8026,15.3365,23.42,15.3365,37.5015,0,14.0918-5.1588,26.709-15.3365,37.5015-10.2277,10.8526-22.8948,16.3513-37.6515,16.3513H68.4845A3.6854,3.6854,0,0,1,64.7954,135.2682Zm-10.0178,3.6841h-4.299a3.6855,3.6855,0,0,1-3.6892-3.6841V34.9409a3.6855,3.6855,0,0,1,3.6892-3.6842h4.299a3.6854,3.6854,0,0,1,3.6892,3.6842V135.2682A3.6854,3.6854,0,0,1,54.7776,138.9523ZM42.43,23.4235a3.6975,3.6975,0,0,1,2.13,1.8945l1.72,3.5792a3.631,3.631,0,0,1,.37,1.5947,3.687,3.687,0,0,1-2.02,3.2892C38.0714,37.1,34.7521,45.1136,34.7521,57.5857c0,12.2973-2.8393,21.53-8.458,27.5138,5.6187,5.9987,8.458,15.2266,8.458,27.5238,0,12.4772,3.3193,20.48,9.8678,23.7946a3.6987,3.6987,0,0,1,2.03,3.2943,3.6413,3.6413,0,0,1-.37,1.59l-1.72,3.5892a3.6759,3.6759,0,0,1-4.9788,1.6946c-10.9476-5.5387-16.5063-16.9611-16.5063-33.9623,0-12.4672-3.2793-20.21-10.0277-23.6647a3.6874,3.6874,0,0,1-2.01-3.2792V84.53a3.6875,3.6875,0,0,1,2.01-3.2792c6.7484-3.4542,10.0277-11.1975,10.0277-23.6647,0-17.0111,5.5587-28.4385,16.5063-33.9623A3.6884,3.6884,0,0,1,42.43,23.4235Z" fill="#dfa926"/>
    <path d="M123.5521,85.1c0-11.2524-3.9491-20.9-12.0973-29.4983-8.0882-8.5281-17.646-12.6771-29.2134-12.6771H76.4727V127.285h5.7687c11.5674,0,21.1252-4.1491,29.2134-12.6871C119.603,106.01,123.5521,96.362,123.5521,85.1Z" fill="#dfa926"/>
  </g>
</svg>
