<svg xmlns="http://www.w3.org/2000/svg" width="377.5465" height="82.7247" viewBox="0 0 377.5465 82.7247">
  <g>
    <path d="M357.6913,82.0147,376.8358,62.87a2.3935,2.3935,0,0,0-1.6829-4.076h-9.5722V50.4181q0-26.6615-15.0691-32.7186A34.051,34.051,0,0,0,338.06,15.7184q-6.2067,0-16.8636,4.7487-.2622.1119-.897.3924t-1.1217.5047a4.2476,4.2476,0,0,0-.822.4866,1.2782,1.2782,0,0,0-.6363,1.0469,1.0922,1.0922,0,0,0,.3737.8789,1.3944,1.3944,0,0,0,.9341.3175,7.6239,7.6239,0,0,0,.9913-.0936,7.7253,7.7253,0,0,1,.8785-.0937q2.5418-.1872,4.5988-.1871a31.8245,31.8245,0,0,1,6.7677.6543,20.3209,20.3209,0,0,1,5.1789,1.8139,13.0074,13.0074,0,0,1,3.7764,2.9914,17.5547,17.5547,0,0,1,2.5987,3.9445,21.3847,21.3847,0,0,1,1.5892,4.9733,47.4068,47.4068,0,0,1,.8042,5.7584q.2245,2.8981.2241,6.5626v8.3757h-9.5726A2.38,2.38,0,0,0,335.18,62.87l19.1452,19.1445a2.3495,2.3495,0,0,0,3.3662,0Z" fill="#e3a73e"/>
    <g>
      <path d="M12.776,14.8956v9.02H8.4582v-9.02L0,.7061H3.8031a1.3571,1.3571,0,0,1,.8921.2733,2.3284,2.3284,0,0,1,.5534.69L9.5023,9.4217q.3681.6911.6414,1.3081.2721.6191.4974,1.2121.2081-.61.4734-1.2281t.6347-1.2921L15.97,1.67A2.1569,2.1569,0,0,1,16.5,1.0114a1.3244,1.3244,0,0,1,.8988-.3053h3.819Z" fill="#e3a73e"/>
      <path d="M27.7029,7.1908a9.0278,9.0278,0,0,1,3.347.594A7.2223,7.2223,0,0,1,33.61,9.47a7.469,7.469,0,0,1,1.6362,2.6643,10.1326,10.1326,0,0,1,.5787,3.515,10.18,10.18,0,0,1-.5787,3.5311A7.6417,7.6417,0,0,1,33.61,21.8616a7.1157,7.1157,0,0,1-2.56,1.7009,9.7492,9.7492,0,0,1-6.702,0,7.1793,7.1793,0,0,1-2.5763-1.7009,7.6559,7.6559,0,0,1-1.6522-2.6809,10.0527,10.0527,0,0,1-.5867-3.5311,10.0061,10.0061,0,0,1,.5867-3.515A7.4831,7.4831,0,0,1,21.7716,9.47a7.2877,7.2877,0,0,1,2.5763-1.6855A9.0857,9.0857,0,0,1,27.7029,7.1908Zm0,13.9161a3.4884,3.4884,0,0,0,3.0417-1.38,6.9275,6.9275,0,0,0,.9867-4.0451,7.0043,7.0043,0,0,0-.9867-4.06,3.4719,3.4719,0,0,0-3.0417-1.3968,3.5178,3.5178,0,0,0-3.0816,1.4048,6.9564,6.9564,0,0,0-.9948,4.0524,6.88,6.88,0,0,0,.9948,4.0371A3.5344,3.5344,0,0,0,27.7029,21.1069Z" fill="#e3a73e"/>
      <path d="M42.55,7.4474V17.9125a3.5174,3.5174,0,0,0,.6987,2.3356,2.586,2.586,0,0,0,2.0949.8268,4.1891,4.1891,0,0,0,1.9256-.4574,6.7408,6.7408,0,0,0,1.7015-1.26V7.4474h3.9644V23.9158H50.5106a.9732.9732,0,0,1-1.0107-.722l-.2721-1.3162a11.5068,11.5068,0,0,1-1.06.9388,6.4149,6.4149,0,0,1-1.1641.7221,6.5112,6.5112,0,0,1-1.3321.4654,6.645,6.645,0,0,1-1.5322.1686,5.8571,5.8571,0,0,1-2.3843-.4573,4.7737,4.7737,0,0,1-1.7415-1.2922,5.6389,5.6389,0,0,1-1.0667-1.9822,8.3674,8.3674,0,0,1-.3614-2.5283V7.4474Z" fill="#e3a73e"/>
      <path d="M74.94,10.9305a1.965,1.965,0,0,1-.3441.3534.7986.7986,0,0,1-.4907.1286,1.0949,1.0949,0,0,1-.5934-.1847c-.192-.1233-.4227-.262-.6894-.4173a5.18,5.18,0,0,0-.9561-.4174,4.393,4.393,0,0,0-1.3721-.1847,4.184,4.184,0,0,0-1.83.3774,3.472,3.472,0,0,0-1.3081,1.0834,4.8673,4.8673,0,0,0-.7787,1.71,9.2022,9.2022,0,0,0-.2561,2.2709,8.93,8.93,0,0,0,.28,2.3436,5.018,5.018,0,0,0,.8107,1.7255,3.4994,3.4994,0,0,0,1.2841,1.06,3.89,3.89,0,0,0,1.7016.3607,4.2259,4.2259,0,0,0,1.5334-.2327,4.8473,4.8473,0,0,0,.9868-.5134c.2667-.1873.5-.3587.6974-.514a1.0574,1.0574,0,0,1,.6668-.2327.8065.8065,0,0,1,.7227.3693L76.144,21.46a7.1887,7.1887,0,0,1-1.4282,1.2921,7.707,7.707,0,0,1-1.5975.8341,8.1128,8.1128,0,0,1-1.71.442,12.1548,12.1548,0,0,1-1.7495.128,7.2994,7.2994,0,0,1-2.8723-.57,6.7123,6.7123,0,0,1-2.3522-1.6609,7.9914,7.9914,0,0,1-1.5882-2.6722A10.3253,10.3253,0,0,1,62.26,15.65a10.4677,10.4677,0,0,1,.5227-3.3623,7.5955,7.5955,0,0,1,1.5321-2.681A7.0324,7.0324,0,0,1,66.819,7.8328a8.6256,8.6256,0,0,1,3.435-.642,8.17,8.17,0,0,1,3.2337.594A7.909,7.909,0,0,1,75.984,9.4863Z" fill="#e3a73e"/>
      <path d="M91.5843,23.9158H89.8028a1.9172,1.9172,0,0,1-.8828-.1686,1.084,1.084,0,0,1-.4814-.6821l-.3534-1.1715a13.5031,13.5031,0,0,1-1.2268.9868,7.4264,7.4264,0,0,1-1.2441.7147,6.3958,6.3958,0,0,1-1.3641.4334,8.2407,8.2407,0,0,1-1.6055.144,6.3139,6.3139,0,0,1-1.9256-.2813,4.1541,4.1541,0,0,1-1.5175-.8454,3.8306,3.8306,0,0,1-.9867-1.4015,4.97,4.97,0,0,1-.3534-1.9482,3.8508,3.8508,0,0,1,.4894-1.8442,4.6174,4.6174,0,0,1,1.63-1.6429,10.4132,10.4132,0,0,1,3.0336-1.2154,19.3738,19.3738,0,0,1,4.7032-.4834v-.97a3.6828,3.6828,0,0,0-.6987-2.4669,2.5512,2.5512,0,0,0-2.0309-.8008,4.9246,4.9246,0,0,0-1.6042.2247,6.2307,6.2307,0,0,0-1.1161.5061c-.316.1873-.6067.356-.8748.5053a1.7731,1.7731,0,0,1-.8827.2247,1.1477,1.1477,0,0,1-.6908-.2087,1.6537,1.6537,0,0,1-.4653-.5133L78.6323,9.743a9.7894,9.7894,0,0,1,6.8527-2.6,6.6216,6.6216,0,0,1,2.5762.4734A5.4836,5.4836,0,0,1,89.98,8.9323a5.6471,5.6471,0,0,1,1.1961,2.0142,7.7632,7.7632,0,0,1,.4081,2.5683Zm-7.7035-2.4715a5.3631,5.3631,0,0,0,1.1228-.1107,4.33,4.33,0,0,0,.9721-.3321,5.2118,5.2118,0,0,0,.8827-.5447,8.0763,8.0763,0,0,0,.8588-.7667V16.9338a16.1174,16.1174,0,0,0-2.8976.218,7.6249,7.6249,0,0,0-1.87.5581,2.4076,2.4076,0,0,0-1.0041.792,1.7664,1.7664,0,0,0-.296.9861,1.7391,1.7391,0,0,0,.6174,1.5035A2.6622,2.6622,0,0,0,83.8808,21.4443Z" fill="#e3a73e"/>
      <path d="M95.486,23.9158V7.4474h2.4229A.9753.9753,0,0,1,98.921,8.17l.2721,1.3a9.0646,9.0646,0,0,1,1.0521-.9314,7.3579,7.3579,0,0,1,1.1708-.7221,5.98,5.98,0,0,1,1.3254-.4654,6.9719,6.9719,0,0,1,1.54-.1606,5.9141,5.9141,0,0,1,2.3923.4573,4.7508,4.7508,0,0,1,1.7415,1.2842,5.66,5.66,0,0,1,1.0588,1.9742,8.3765,8.3765,0,0,1,.3613,2.5282V23.9158h-3.9644V13.4347a3.5193,3.5193,0,0,0-.6987-2.3355,2.59,2.59,0,0,0-2.0949-.8268,4.1231,4.1231,0,0,0-1.9256.4661A6.8822,6.8822,0,0,0,99.45,12.0059v11.91Z" fill="#e3a73e"/>
      <path d="M132.8353,23.9158h-1.7815a1.9169,1.9169,0,0,1-.8828-.1686,1.084,1.084,0,0,1-.4814-.6821l-.3534-1.1715a13.5031,13.5031,0,0,1-1.2268.9868,7.4264,7.4264,0,0,1-1.2441.7147,6.3958,6.3958,0,0,1-1.3641.4334,8.2407,8.2407,0,0,1-1.6055.144,6.3139,6.3139,0,0,1-1.9256-.2813,4.1533,4.1533,0,0,1-1.5175-.8454,3.8306,3.8306,0,0,1-.9867-1.4015,4.97,4.97,0,0,1-.3534-1.9482,3.8508,3.8508,0,0,1,.4894-1.8442,4.6174,4.6174,0,0,1,1.6295-1.6429,10.4132,10.4132,0,0,1,3.0336-1.2154,19.3738,19.3738,0,0,1,4.7032-.4834v-.97a3.6828,3.6828,0,0,0-.6987-2.4669,2.5512,2.5512,0,0,0-2.0309-.8008,4.9246,4.9246,0,0,0-1.6042.2247,6.2307,6.2307,0,0,0-1.1161.5061c-.316.1873-.6067.356-.8748.5053a1.7731,1.7731,0,0,1-.8827.2247,1.1475,1.1475,0,0,1-.6908-.2087,1.6537,1.6537,0,0,1-.4653-.5133l-.7215-1.2682a9.79,9.79,0,0,1,6.8528-2.6,6.6216,6.6216,0,0,1,2.5762.4734,5.4845,5.4845,0,0,1,1.9189,1.3162,5.6471,5.6471,0,0,1,1.1961,2.0142,7.7632,7.7632,0,0,1,.4081,2.5683Zm-7.7035-2.4715a5.3631,5.3631,0,0,0,1.1228-.1107,4.33,4.33,0,0,0,.9721-.3321,5.2118,5.2118,0,0,0,.8827-.5447,8.0763,8.0763,0,0,0,.8588-.7667V16.9338a16.1174,16.1174,0,0,0-2.8976.218,7.6235,7.6235,0,0,0-1.87.5581,2.4076,2.4076,0,0,0-1.0041.792,1.7664,1.7664,0,0,0-.296.9861,1.7391,1.7391,0,0,0,.6174,1.5035A2.6622,2.6622,0,0,0,125.1318,21.4443Z" fill="#e3a73e"/>
      <path d="M140.9588.0647V23.9158H136.993V.0647Z" fill="#e3a73e"/>
      <path d="M155.211,10.6578a1.0551,1.0551,0,0,1-.3361.3614.8811.8811,0,0,1-.4507.104,1.4181,1.4181,0,0,1-.6174-.16q-.3281-.1611-.7627-.3614a6.9481,6.9481,0,0,0-.9868-.3614,4.7427,4.7427,0,0,0-1.3081-.16,3.0489,3.0489,0,0,0-1.8456.4974,1.5431,1.5431,0,0,0-.6747,1.3,1.2381,1.2381,0,0,0,.3454.8908,3.11,3.11,0,0,0,.9147.634,8.978,8.978,0,0,0,1.2922.4894q.7219.2171,1.4774.4734t1.4762.5861a5.1455,5.1455,0,0,1,1.2921.8347,3.6753,3.6753,0,0,1,1.26,2.913,5.48,5.48,0,0,1-.4334,2.1909,4.8266,4.8266,0,0,1-1.2681,1.7335,5.9288,5.9288,0,0,1-2.0629,1.14,9.5948,9.5948,0,0,1-4.4778.2567,9.7671,9.7671,0,0,1-1.5575-.4248,8.64,8.64,0,0,1-1.38-.642,6.6662,6.6662,0,0,1-1.1148-.8028l.9148-1.5088a1.2858,1.2858,0,0,1,.4174-.4174,1.1679,1.1679,0,0,1,.6094-.1447,1.2873,1.2873,0,0,1,.6987.2087c.2187.1394.4734.2894.7614.4494a6.7829,6.7829,0,0,0,1.02.4494,4.4791,4.4791,0,0,0,1.4842.2087,3.8664,3.8664,0,0,0,1.2121-.168,2.573,2.573,0,0,0,.8348-.4414,1.6622,1.6622,0,0,0,.4814-.6341,1.9083,1.9083,0,0,0,.152-.7467,1.329,1.329,0,0,0-.3454-.9468,3.0142,3.0142,0,0,0-.9148-.6421,8.7881,8.7881,0,0,0-1.3-.4893q-.73-.2171-1.4921-.4734a13.8538,13.8538,0,0,1-1.4922-.6021,5.0529,5.0529,0,0,1-1.3-.8748,3.9722,3.9722,0,0,1-.9161-1.3,4.55,4.55,0,0,1-.3441-1.8622,4.737,4.737,0,0,1,.4014-1.9262,4.5118,4.5118,0,0,1,1.1788-1.5968A5.8552,5.8552,0,0,1,147.9969,7.6a8.0846,8.0846,0,0,1,2.6882-.4093,8.2283,8.2283,0,0,1,3.0977.562A6.9926,6.9926,0,0,1,156.11,9.23Z" fill="#e3a73e"/>
      <path d="M166.4948,7.1908a9.0278,9.0278,0,0,1,3.347.594,7.2232,7.2232,0,0,1,2.56,1.6855,7.469,7.469,0,0,1,1.6362,2.6643,10.1326,10.1326,0,0,1,.5787,3.515,10.18,10.18,0,0,1-.5787,3.5311,7.6417,7.6417,0,0,1-1.6362,2.6809,7.1166,7.1166,0,0,1-2.56,1.7009,9.7492,9.7492,0,0,1-6.702,0,7.1793,7.1793,0,0,1-2.5763-1.7009,7.6559,7.6559,0,0,1-1.6522-2.6809,10.0527,10.0527,0,0,1-.5867-3.5311,10.0061,10.0061,0,0,1,.5867-3.515A7.4831,7.4831,0,0,1,160.5635,9.47,7.2877,7.2877,0,0,1,163.14,7.7848,9.0857,9.0857,0,0,1,166.4948,7.1908Zm0,13.9161a3.4884,3.4884,0,0,0,3.0417-1.38,6.9275,6.9275,0,0,0,.9867-4.0451,7.0043,7.0043,0,0,0-.9867-4.06,3.4719,3.4719,0,0,0-3.0417-1.3968,3.5181,3.5181,0,0,0-3.0817,1.4048,6.9572,6.9572,0,0,0-.9947,4.0524,6.881,6.881,0,0,0,.9947,4.0371A3.5347,3.5347,0,0,0,166.4948,21.1069Z" fill="#e3a73e"/>
      <path d="M184.6154,23.9158V10.4331l-1.4282-.2247a1.5243,1.5243,0,0,1-.7467-.3207.8417.8417,0,0,1-.28-.6741V7.5921h2.455V7.0627a7.722,7.722,0,0,1,.4987-2.8009,5.9627,5.9627,0,0,1,1.5081-2.2389A7.1068,7.1068,0,0,1,189.1745.5381,11.0676,11.0676,0,0,1,192.8176,0a13.408,13.408,0,0,1,1.38.0727,6.2322,6.2322,0,0,1,1.22.2327L195.29,2.36a.4518.4518,0,0,1-.4014.4414,4.8863,4.8863,0,0,1-.9147.072,10.56,10.56,0,0,0-2.6083.2733,4.3515,4.3515,0,0,0-1.7015.81,2.979,2.979,0,0,0-.9308,1.3488,5.7353,5.7353,0,0,0-.2813,1.8856v.4013h10.209V23.9158h-3.9644V10.4171h-6.1153V23.9158Z" fill="#e3a73e"/>
      <path d="M203.2027,23.9158V7.4474h2.4229a.9755.9755,0,0,1,1.0121.7228l.272,1.3a9.0646,9.0646,0,0,1,1.0521-.9314,7.3624,7.3624,0,0,1,1.1708-.7221,5.98,5.98,0,0,1,1.3255-.4654,6.97,6.97,0,0,1,1.54-.1606,5.9141,5.9141,0,0,1,2.3923.4573,4.7508,4.7508,0,0,1,1.7415,1.2842,5.66,5.66,0,0,1,1.0588,1.9742,8.3764,8.3764,0,0,1,.3614,2.5282V23.9158h-3.9645V13.4347a3.5193,3.5193,0,0,0-.6987-2.3355,2.59,2.59,0,0,0-2.0949-.8268,4.1224,4.1224,0,0,0-1.9255.4661,6.8785,6.8785,0,0,0-1.7015,1.2674v11.91Z" fill="#e3a73e"/>
      <path d="M233.0405,23.9158a.9733.9733,0,0,1-1.0108-.722l-.3214-1.59a9.8127,9.8127,0,0,1-1.0748,1.0434,6.7867,6.7867,0,0,1-1.2121.8028,6.2947,6.2947,0,0,1-1.3961.5213,6.6866,6.6866,0,0,1-1.6135.1847,5.3633,5.3633,0,0,1-4.4058-2.1909,7.82,7.82,0,0,1-1.2522-2.64,13.3176,13.3176,0,0,1-.4413-3.5957,11.2577,11.2577,0,0,1,.4973-3.4024,8.2778,8.2778,0,0,1,1.4295-2.729A6.6655,6.6655,0,0,1,224.47,7.7928a6.4392,6.4392,0,0,1,2.92-.65,5.7213,5.7213,0,0,1,2.36.4414,6.1989,6.1989,0,0,1,1.75,1.18V.0647h3.9644V23.9158ZM227.76,21.0109a4.0522,4.0522,0,0,0,2.1029-.5141,6.2379,6.2379,0,0,0,1.6375-1.46V11.6532a3.9009,3.9009,0,0,0-1.4682-1.1561,4.337,4.337,0,0,0-1.71-.3367,3.8405,3.8405,0,0,0-1.63.3367,3.1914,3.1914,0,0,0-1.2361,1.0194,5.0023,5.0023,0,0,0-.7788,1.7336,9.981,9.981,0,0,0-.272,2.48,11.0479,11.0479,0,0,0,.232,2.4482,4.8,4.8,0,0,0,.6668,1.6368,2.5263,2.5263,0,0,0,1.0588.9148A3.3706,3.3706,0,0,0,227.76,21.0109Z" fill="#e3a73e"/>
      <path d="M245.9458,23.9158V7.4474h2.4229a.9754.9754,0,0,1,1.0121.7228l.2561,1.22a9.6313,9.6313,0,0,1,.9067-.8828,5.8514,5.8514,0,0,1,1.0121-.69,5.46,5.46,0,0,1,1.1548-.4574,5.1607,5.1607,0,0,1,1.3562-.1686,3.8436,3.8436,0,0,1,2.56.8427,5.0745,5.0745,0,0,1,1.5015,2.2389,5.0085,5.0085,0,0,1,.9628-1.4041,5.2633,5.2633,0,0,1,1.2681-.9548,5.8559,5.8559,0,0,1,1.4682-.5461,7.083,7.083,0,0,1,1.5655-.1766,6.5729,6.5729,0,0,1,2.4229.4173,4.6606,4.6606,0,0,1,1.7828,1.22,5.3794,5.3794,0,0,1,1.0988,1.9582,8.5062,8.5062,0,0,1,.3774,2.6482V23.9158h-3.9644V13.4347a3.5222,3.5222,0,0,0-.6908-2.3675,2.5329,2.5329,0,0,0-2.0215-.7948,3.03,3.03,0,0,0-1.1321.2087,2.6891,2.6891,0,0,0-.9148.6021,2.76,2.76,0,0,0-.6187.9874,3.8492,3.8492,0,0,0-.224,1.3641V23.9158h-3.9805V13.4347a3.5851,3.5851,0,0,0-.6667-2.4075,2.4836,2.4836,0,0,0-1.9655-.7548,3.174,3.174,0,0,0-1.5975.4254,5.3979,5.3979,0,0,0-1.3882,1.1641V23.9158Z" fill="#e3a73e"/>
      <path d="M279.78,7.1908a7.99,7.99,0,0,1,2.8657.498,6.2715,6.2715,0,0,1,2.2549,1.4522,6.633,6.633,0,0,1,1.4774,2.3435,8.872,8.872,0,0,1,.5294,3.17,5.7462,5.7462,0,0,1-.04.746,1.1692,1.1692,0,0,1-.1453.4654.581.581,0,0,1-.28.2407,1.2064,1.2064,0,0,1-.4494.072H275.8156a5.6756,5.6756,0,0,0,1.3655,3.7244,4.2516,4.2516,0,0,0,3.1456,1.1875,5.4541,5.4541,0,0,0,1.6616-.2247,7.8,7.8,0,0,0,1.2187-.4974q.5222-.273.9148-.498a1.54,1.54,0,0,1,.7628-.2247.8577.8577,0,0,1,.4173.0966.925.925,0,0,1,.3054.2727l1.1548,1.4449a6.6262,6.6262,0,0,1-1.4762,1.2921,8.2346,8.2346,0,0,1-1.71.8341,9.37,9.37,0,0,1-1.8135.442,13.0282,13.0282,0,0,1-1.7895.128,8.7888,8.7888,0,0,1-3.1937-.57,7.132,7.132,0,0,1-2.5683-1.6849,7.9068,7.9068,0,0,1-1.7175-2.7609,10.6814,10.6814,0,0,1-.6267-3.8118,9.1127,9.1127,0,0,1,.5467-3.17,7.6018,7.6018,0,0,1,1.5642-2.5843,7.384,7.384,0,0,1,2.4882-1.7415A8.1942,8.1942,0,0,1,279.78,7.1908Zm.0814,2.8409a3.6689,3.6689,0,0,0-2.7137.9795,4.83,4.83,0,0,0-1.2508,2.7769h7.4475a4.953,4.953,0,0,0-.2094-1.4528,3.3586,3.3586,0,0,0-.6414-1.1961,3.0475,3.0475,0,0,0-1.0921-.81A3.7143,3.7143,0,0,0,279.8614,10.0317Z" fill="#e3a73e"/>
      <path d="M9.261,45.7128a9.0258,9.0258,0,0,1,3.347.5941,7.2205,7.2205,0,0,1,2.56,1.6855,7.4678,7.4678,0,0,1,1.6361,2.6642,11.0114,11.0114,0,0,1,0,7.0461,7.6413,7.6413,0,0,1-1.6361,2.681,7.1176,7.1176,0,0,1-2.56,1.7008,9.0258,9.0258,0,0,1-3.347.5941,9.0836,9.0836,0,0,1-3.355-.5941A7.18,7.18,0,0,1,3.33,60.3837a7.6558,7.6558,0,0,1-1.6522-2.681,10.871,10.871,0,0,1,0-7.0461A7.4821,7.4821,0,0,1,3.33,47.9924,7.2849,7.2849,0,0,1,5.906,46.3069,9.0836,9.0836,0,0,1,9.261,45.7128Zm0,13.9161a3.4882,3.4882,0,0,0,3.0416-1.38,6.9275,6.9275,0,0,0,.9868-4.0451,7.0038,7.0038,0,0,0-.9868-4.06A3.4716,3.4716,0,0,0,9.261,48.7464a3.518,3.518,0,0,0-3.0817,1.4049,6.9564,6.9564,0,0,0-.9948,4.0524,6.8807,6.8807,0,0,0,.9948,4.0371A3.5349,3.5349,0,0,0,9.261,59.6289Z" fill="#e3a73e"/>
      <path d="M20.4808,62.4379V45.97h2.4229a.9752.9752,0,0,1,1.0121.7227l.2721,1.3a9.0655,9.0655,0,0,1,1.0521-.9315,7.35,7.35,0,0,1,1.1708-.722,5.97,5.97,0,0,1,1.3254-.4654,6.965,6.965,0,0,1,1.54-.1607,5.9141,5.9141,0,0,1,2.3923.4574A4.7505,4.7505,0,0,1,33.41,47.4543a5.6613,5.6613,0,0,1,1.0588,1.9742,8.3771,8.3771,0,0,1,.3613,2.5283V62.4379H30.8659V51.9568a3.52,3.52,0,0,0-.6987-2.3356,2.59,2.59,0,0,0-2.0949-.8267,4.123,4.123,0,0,0-1.9256.466,6.88,6.88,0,0,0-1.7015,1.2675v11.91Z" fill="#e3a73e"/>
      <path d="M44.926,62.4379V45.97h2.423a.9754.9754,0,0,1,1.0121.7227l.256,1.22a9.6568,9.6568,0,0,1,.9068-.8828,5.847,5.847,0,0,1,1.0121-.69,5.4554,5.4554,0,0,1,1.1548-.4574,5.1593,5.1593,0,0,1,1.3561-.1687,3.844,3.844,0,0,1,2.56.8428,5.0748,5.0748,0,0,1,1.5015,2.2389,5.0109,5.0109,0,0,1,.9627-1.4042,5.2644,5.2644,0,0,1,1.2682-.9548,5.85,5.85,0,0,1,1.4681-.546,7.0778,7.0778,0,0,1,1.5655-.1767,6.5709,6.5709,0,0,1,2.4229.4174,4.66,4.66,0,0,1,1.7829,1.22,5.3817,5.3817,0,0,1,1.0988,1.9582,8.51,8.51,0,0,1,.3773,2.6483V62.4379H64.0907V51.9568A3.5229,3.5229,0,0,0,63.4,49.5892a2.5332,2.5332,0,0,0-2.0216-.7947,3.0327,3.0327,0,0,0-1.1321.2086,2.6917,2.6917,0,0,0-.9147.6021,2.76,2.76,0,0,0-.6188.9874,3.852,3.852,0,0,0-.224,1.3642V62.4379h-3.98V51.9568a3.5854,3.5854,0,0,0-.6668-2.4076,2.4838,2.4838,0,0,0-1.9655-.7547,3.1752,3.1752,0,0,0-1.5975.4253,5.3963,5.3963,0,0,0-1.3881,1.1642V62.4379Z" fill="#e3a73e"/>
      <path d="M77.22,66.9644a1.5248,1.5248,0,0,1-.4574.634,1.4009,1.4009,0,0,1-.8587.2167H72.95l3.083-6.5973L69.3713,45.97h3.467a1.0921,1.0921,0,0,1,.7388.2247,1.4987,1.4987,0,0,1,.3853.514l3.5151,8.5389a7.8626,7.8626,0,0,1,.3053.8668q.1281.4491.2241.8987.1279-.465.2813-.8987t.328-.8828l3.3071-8.5229a1.1643,1.1643,0,0,1,.4253-.53,1.1338,1.1338,0,0,1,.6668-.2087H86.193Z" fill="#e3a73e"/>
      <path d="M104.4736,49.18a1.053,1.053,0,0,1-.336.3614.8811.8811,0,0,1-.4507.104,1.4167,1.4167,0,0,1-.6174-.16q-.328-.1611-.7628-.3614a6.9466,6.9466,0,0,0-.9867-.3614,4.7473,4.7473,0,0,0-1.3082-.16,3.0494,3.0494,0,0,0-1.8455.4974,1.5434,1.5434,0,0,0-.6747,1.3,1.2378,1.2378,0,0,0,.3453.8907,3.1122,3.1122,0,0,0,.9148.6341,8.9838,8.9838,0,0,0,1.2921.4894q.7221.2169,1.4775.4733t1.4762.5861a5.1458,5.1458,0,0,1,1.2921.8348,3.6744,3.6744,0,0,1,1.26,2.9129,5.48,5.48,0,0,1-.4333,2.1909,4.8248,4.8248,0,0,1-1.2682,1.7335,5.927,5.927,0,0,1-2.0629,1.14,9.5911,9.5911,0,0,1-4.4778.2567,9.77,9.77,0,0,1-1.5575-.4247,8.643,8.643,0,0,1-1.38-.6421,6.66,6.66,0,0,1-1.1148-.8027l.9148-1.5089a1.2835,1.2835,0,0,1,.4174-.4173,1.1679,1.1679,0,0,1,.6094-.1447,1.2875,1.2875,0,0,1,.6987.2087c.2187.1393.4734.2893.7614.4494a6.7832,6.7832,0,0,0,1.02.4493,4.4761,4.4761,0,0,0,1.4842.2087,3.8668,3.8668,0,0,0,1.2121-.168,2.5741,2.5741,0,0,0,.8348-.4414,1.6623,1.6623,0,0,0,.4813-.634,1.9071,1.9071,0,0,0,.1521-.7468,1.3292,1.3292,0,0,0-.3454-.9468,3.0123,3.0123,0,0,0-.9148-.642,8.7878,8.7878,0,0,0-1.3-.4894q-.73-.2171-1.4922-.4734a13.8194,13.8194,0,0,1-1.4921-.6021,5.0556,5.0556,0,0,1-1.3-.8747,3.9757,3.9757,0,0,1-.9161-1.3,4.5519,4.5519,0,0,1-.344-1.8622,4.735,4.735,0,0,1,.4014-1.9262,4.511,4.511,0,0,1,1.1788-1.5969A5.8555,5.8555,0,0,1,97.26,46.1222a8.0856,8.0856,0,0,1,2.6883-.4094,8.2264,8.2264,0,0,1,3.0977.5621,6.992,6.992,0,0,1,2.3269,1.4768Z" fill="#e3a73e"/>
      <path d="M115.7575,45.7128a9.0258,9.0258,0,0,1,3.347.5941,7.2205,7.2205,0,0,1,2.56,1.6855,7.4678,7.4678,0,0,1,1.6361,2.6642,11.0114,11.0114,0,0,1,0,7.0461,7.6413,7.6413,0,0,1-1.6361,2.681,7.1176,7.1176,0,0,1-2.56,1.7008,9.7476,9.7476,0,0,1-6.702,0,7.18,7.18,0,0,1-2.5763-1.7008,7.6558,7.6558,0,0,1-1.6522-2.681,10.871,10.871,0,0,1,0-7.0461,7.4821,7.4821,0,0,1,1.6522-2.6642,7.2849,7.2849,0,0,1,2.5763-1.6855A9.0836,9.0836,0,0,1,115.7575,45.7128Zm0,13.9161a3.488,3.488,0,0,0,3.0416-1.38,6.9275,6.9275,0,0,0,.9868-4.0451,7.0038,7.0038,0,0,0-.9868-4.06,3.4714,3.4714,0,0,0-3.0416-1.3969,3.518,3.518,0,0,0-3.0817,1.4049,6.9572,6.9572,0,0,0-.9947,4.0524,6.8815,6.8815,0,0,0,.9947,4.0371A3.5349,3.5349,0,0,0,115.7575,59.6289Z" fill="#e3a73e"/>
      <path d="M138.5492,49.4525a1.9581,1.9581,0,0,1-.344.3534.799.799,0,0,1-.4907.1287,1.0947,1.0947,0,0,1-.5934-.1847c-.1921-.1234-.4228-.262-.69-.4174a5.193,5.193,0,0,0-.9561-.4174,4.396,4.396,0,0,0-1.3721-.1847,4.1847,4.1847,0,0,0-1.8295.3774,3.4735,3.4735,0,0,0-1.3082,1.0835,4.8683,4.8683,0,0,0-.7787,1.7095,9.2019,9.2019,0,0,0-.256,2.2709,8.9313,8.9313,0,0,0,.28,2.3436,5.0216,5.0216,0,0,0,.8107,1.7255A3.4984,3.4984,0,0,0,132.3059,59.3a3.89,3.89,0,0,0,1.7015.3607,4.2247,4.2247,0,0,0,1.5335-.2327,4.8449,4.8449,0,0,0,.9868-.5134c.2667-.1873.5-.3587.6974-.514a1.0571,1.0571,0,0,1,.6667-.2327.8062.8062,0,0,1,.7227.3694l1.1388,1.4448a7.1851,7.1851,0,0,1-1.4281,1.2921,7.712,7.712,0,0,1-1.5975.8341,8.113,8.113,0,0,1-1.7095.4421,12.17,12.17,0,0,1-1.75.128,7.2978,7.2978,0,0,1-2.8724-.57,6.713,6.713,0,0,1-2.3522-1.6608,7.9919,7.9919,0,0,1-1.5882-2.6723,10.3247,10.3247,0,0,1-.5867-3.6037,10.4683,10.4683,0,0,1,.5227-3.3624,7.5953,7.5953,0,0,1,1.5322-2.6809,7.0281,7.0281,0,0,1,2.5043-1.7735,8.6235,8.6235,0,0,1,3.435-.6421,8.1684,8.1684,0,0,1,3.2337.5941,7.9041,7.9041,0,0,1,2.4962,1.7015Z" fill="#e3a73e"/>
      <path d="M155.1936,62.4379h-1.7815a1.9158,1.9158,0,0,1-.8828-.1687,1.0836,1.0836,0,0,1-.4813-.6821l-.3534-1.1714a13.4979,13.4979,0,0,1-1.2268.9867,7.435,7.435,0,0,1-1.2441.7148,6.4041,6.4041,0,0,1-1.3642.4334,8.24,8.24,0,0,1-1.6055.144,6.31,6.31,0,0,1-1.9255-.2814,4.1519,4.1519,0,0,1-1.5175-.8454,3.83,3.83,0,0,1-.9868-1.4015,4.9708,4.9708,0,0,1-.3534-1.9482,3.8511,3.8511,0,0,1,.4894-1.8442,4.6181,4.6181,0,0,1,1.63-1.6428,10.411,10.411,0,0,1,3.0337-1.2155,19.3779,19.3779,0,0,1,4.7031-.4834v-.97a3.6824,3.6824,0,0,0-.6987-2.4669,2.5511,2.5511,0,0,0-2.0309-.8007,4.9237,4.9237,0,0,0-1.6041.2246,6.2388,6.2388,0,0,0-1.1162.5061c-.316.1873-.6067.356-.8747.5054a1.7742,1.7742,0,0,1-.8828.2247,1.1479,1.1479,0,0,1-.6907-.2087,1.6556,1.6556,0,0,1-.4654-.5134l-.7214-1.2681a9.7891,9.7891,0,0,1,6.8527-2.6,6.62,6.62,0,0,1,2.5763.4734,5.4825,5.4825,0,0,1,1.9188,1.3161,5.6505,5.6505,0,0,1,1.1962,2.0142,7.7658,7.7658,0,0,1,.408,2.5683ZM147.49,59.9663a5.3557,5.3557,0,0,0,1.1228-.1107,4.3332,4.3332,0,0,0,.9721-.332,5.215,5.215,0,0,0,.8828-.5447,8.0675,8.0675,0,0,0,.8587-.7668V55.4558a16.1182,16.1182,0,0,0-2.8976.218,7.627,7.627,0,0,0-1.8695.5581,2.4063,2.4063,0,0,0-1.0041.7921,1.7652,1.7652,0,0,0-.2961.9861,1.7394,1.7394,0,0,0,.6174,1.5035A2.6633,2.6633,0,0,0,147.49,59.9663Z" fill="#e3a73e"/>
      <path d="M163.9105,41.17a2.2467,2.2467,0,0,1-.2093.9635,2.6191,2.6191,0,0,1-1.3642,1.3241,2.4815,2.4815,0,0,1-.9947.2007,2.3816,2.3816,0,0,1-.9708-.2007,2.5573,2.5573,0,0,1-1.3321-1.3241,2.3214,2.3214,0,0,1-.2014-.9635,2.4727,2.4727,0,0,1,.2014-.9948,2.5328,2.5328,0,0,1,.5373-.8027,2.5649,2.5649,0,0,1,.7948-.5374,2.3816,2.3816,0,0,1,.9708-.2007,2.4815,2.4815,0,0,1,.9947.2007,2.6392,2.6392,0,0,1,.8108.5374,2.5748,2.5748,0,0,1,.5534.8027A2.3923,2.3923,0,0,1,163.9105,41.17Zm-.5934,4.7992V62.4379h-3.9657V45.97Z" fill="#e3a73e"/>
      <path d="M172.0167,38.5867V62.4379H168.051V38.5867Z" fill="#e3a73e"/>
      <path d="M195.5939,62.4379h-1.7816a1.9153,1.9153,0,0,1-.8827-.1687,1.0837,1.0837,0,0,1-.4814-.6821l-.3534-1.1714a13.4979,13.4979,0,0,1-1.2268.9867,7.431,7.431,0,0,1-1.2441.7148,6.4032,6.4032,0,0,1-1.3641.4334,8.2407,8.2407,0,0,1-1.6055.144,6.3108,6.3108,0,0,1-1.9256-.2814,4.1519,4.1519,0,0,1-1.5175-.8454,3.8286,3.8286,0,0,1-.9867-1.4015,4.969,4.969,0,0,1-.3534-1.9482,3.8511,3.8511,0,0,1,.4894-1.8442,4.6172,4.6172,0,0,1,1.63-1.6428,10.41,10.41,0,0,1,3.0336-1.2155,19.3788,19.3788,0,0,1,4.7032-.4834v-.97a3.6824,3.6824,0,0,0-.6988-2.4669,2.5508,2.5508,0,0,0-2.0308-.8007,4.9244,4.9244,0,0,0-1.6042.2246,6.2377,6.2377,0,0,0-1.1161.5061c-.3161.1873-.6068.356-.8748.5054a1.7741,1.7741,0,0,1-.8827.2247,1.1482,1.1482,0,0,1-.6908-.2087,1.6556,1.6556,0,0,1-.4654-.5134l-.7214-1.2681a9.7892,9.7892,0,0,1,6.8527-2.6,6.62,6.62,0,0,1,2.5763.4734,5.4829,5.4829,0,0,1,1.9189,1.3161,5.65,5.65,0,0,1,1.1961,2.0142,7.7658,7.7658,0,0,1,.4081,2.5683ZM187.89,59.9663a5.3564,5.3564,0,0,0,1.1228-.1107,4.3349,4.3349,0,0,0,.9721-.332,5.2182,5.2182,0,0,0,.8827-.5447,8.0778,8.0778,0,0,0,.8588-.7668V55.4558a16.1194,16.1194,0,0,0-2.8977.218,7.6283,7.6283,0,0,0-1.87.5581,2.4069,2.4069,0,0,0-1.0041.7921,1.7659,1.7659,0,0,0-.296.9861,1.7391,1.7391,0,0,0,.6174,1.5035A2.6629,2.6629,0,0,0,187.89,59.9663Z" fill="#e3a73e"/>
      <path d="M211.0675,49.4525a1.9583,1.9583,0,0,1-.3441.3534.7986.7986,0,0,1-.4907.1287,1.0949,1.0949,0,0,1-.5934-.1847c-.192-.1234-.4227-.262-.6894-.4174a5.193,5.193,0,0,0-.9561-.4174,4.396,4.396,0,0,0-1.3721-.1847,4.1847,4.1847,0,0,0-1.8295.3774,3.4735,3.4735,0,0,0-1.3082,1.0835,4.8683,4.8683,0,0,0-.7787,1.7095,9.2016,9.2016,0,0,0-.2561,2.2709,8.9311,8.9311,0,0,0,.28,2.3436,5.0216,5.0216,0,0,0,.8107,1.7255A3.4976,3.4976,0,0,0,204.8242,59.3a3.89,3.89,0,0,0,1.7015.3607,4.2247,4.2247,0,0,0,1.5335-.2327,4.8439,4.8439,0,0,0,.9867-.5134c.2667-.1873.5-.3587.6974-.514a1.0574,1.0574,0,0,1,.6668-.2327.8063.8063,0,0,1,.7227.3694l1.1388,1.4448a7.1879,7.1879,0,0,1-1.4281,1.2921,7.712,7.712,0,0,1-1.5975.8341,8.1155,8.1155,0,0,1-1.71.4421,12.1681,12.1681,0,0,1-1.7495.128,7.2977,7.2977,0,0,1-2.8723-.57,6.713,6.713,0,0,1-2.3522-1.6608,7.9919,7.9919,0,0,1-1.5882-2.6723,10.3247,10.3247,0,0,1-.5867-3.6037,10.4683,10.4683,0,0,1,.5227-3.3624,7.5938,7.5938,0,0,1,1.5322-2.6809,7.0286,7.0286,0,0,1,2.5042-1.7735,8.6244,8.6244,0,0,1,3.4351-.6421,8.1676,8.1676,0,0,1,3.2336.5941,7.9045,7.9045,0,0,1,2.4963,1.7015Z" fill="#e3a73e"/>
      <path d="M226.38,49.4525a1.9616,1.9616,0,0,1-.3441.3534.7986.7986,0,0,1-.4907.1287,1.0949,1.0949,0,0,1-.5934-.1847c-.192-.1234-.4227-.262-.6894-.4174a5.193,5.193,0,0,0-.9561-.4174,4.3964,4.3964,0,0,0-1.3721-.1847,4.1854,4.1854,0,0,0-1.83.3774,3.4732,3.4732,0,0,0-1.3081,1.0835,4.8684,4.8684,0,0,0-.7788,1.7095,9.2066,9.2066,0,0,0-.256,2.2709,8.9355,8.9355,0,0,0,.28,2.3436,5.0217,5.0217,0,0,0,.8108,1.7255A3.4981,3.4981,0,0,0,220.1364,59.3a3.89,3.89,0,0,0,1.7015.3607,4.224,4.224,0,0,0,1.5335-.2327,4.8423,4.8423,0,0,0,.9868-.5134c.2667-.1873.5-.3587.6974-.514a1.0574,1.0574,0,0,1,.6668-.2327.8065.8065,0,0,1,.7227.3694l1.1388,1.4448a7.1856,7.1856,0,0,1-1.4282,1.2921,7.71,7.71,0,0,1-1.5975.8341,8.113,8.113,0,0,1-1.7095.4421,12.1691,12.1691,0,0,1-1.75.128,7.2977,7.2977,0,0,1-2.8723-.57,6.7121,6.7121,0,0,1-2.3522-1.6608,7.9919,7.9919,0,0,1-1.5882-2.6723,10.3247,10.3247,0,0,1-.5867-3.6037,10.4656,10.4656,0,0,1,.5227-3.3624,7.5951,7.5951,0,0,1,1.5321-2.6809,7.03,7.03,0,0,1,2.5043-1.7735,8.6239,8.6239,0,0,1,3.435-.6421,8.1677,8.1677,0,0,1,3.2337.5941,7.9057,7.9057,0,0,1,2.4963,1.7015Z" fill="#e3a73e"/>
      <path d="M237.15,45.7128a9.0258,9.0258,0,0,1,3.347.5941,7.22,7.22,0,0,1,2.56,1.6855,7.4694,7.4694,0,0,1,1.6362,2.6642,11.0132,11.0132,0,0,1,0,7.0461,7.643,7.643,0,0,1-1.6362,2.681,7.1168,7.1168,0,0,1-2.56,1.7008,9.7476,9.7476,0,0,1-6.702,0,7.1813,7.1813,0,0,1-2.5763-1.7008,7.6556,7.6556,0,0,1-1.6521-2.681,10.8693,10.8693,0,0,1,0-7.0461,7.4819,7.4819,0,0,1,1.6521-2.6642,7.2858,7.2858,0,0,1,2.5763-1.6855A9.0836,9.0836,0,0,1,237.15,45.7128Zm0,13.9161a3.4884,3.4884,0,0,0,3.0417-1.38,6.9275,6.9275,0,0,0,.9867-4.0451,7.0038,7.0038,0,0,0-.9867-4.06,3.4717,3.4717,0,0,0-3.0417-1.3969,3.5177,3.5177,0,0,0-3.0816,1.4049,6.9564,6.9564,0,0,0-.9948,4.0524,6.8807,6.8807,0,0,0,.9948,4.0371A3.5346,3.5346,0,0,0,237.15,59.6289Z" fill="#e3a73e"/>
      <path d="M251.9971,45.97V56.4346a3.5178,3.5178,0,0,0,.6987,2.3356,2.586,2.586,0,0,0,2.0949.8267,4.1891,4.1891,0,0,0,1.9256-.4574,6.7367,6.7367,0,0,0,1.7015-1.26V45.97h3.9644V62.4379h-2.4243a.9733.9733,0,0,1-1.0107-.7221L258.6751,60.4a11.5055,11.5055,0,0,1-1.06.9387,6.406,6.406,0,0,1-1.1641.7221,6.5053,6.5053,0,0,1-1.3321.4654,6.6394,6.6394,0,0,1-1.5322.1687,5.8563,5.8563,0,0,1-2.3842-.4574,4.7746,4.7746,0,0,1-1.7416-1.2921,5.64,5.64,0,0,1-1.0667-1.9822,8.3679,8.3679,0,0,1-.3614-2.5283V45.97Z" fill="#e3a73e"/>
      <path d="M266.62,62.4379V45.97h2.4229a.9753.9753,0,0,1,1.0121.7227l.272,1.3a9.082,9.082,0,0,1,1.0521-.9315,7.3545,7.3545,0,0,1,1.1708-.722,5.9722,5.9722,0,0,1,1.3255-.4654,6.9644,6.9644,0,0,1,1.54-.1607,5.9139,5.9139,0,0,1,2.3922.4574,4.75,4.75,0,0,1,1.7415,1.2841,5.66,5.66,0,0,1,1.0588,1.9742,8.3739,8.3739,0,0,1,.3614,2.5283V62.4379h-3.9644V51.9568a3.5194,3.5194,0,0,0-.6988-2.3356,2.59,2.59,0,0,0-2.0949-.8267,4.1226,4.1226,0,0,0-1.9255.466,6.8765,6.8765,0,0,0-1.7015,1.2675v11.91Z" fill="#e3a73e"/>
      <path d="M290.2785,62.6946a4.3277,4.3277,0,0,1-3.29-1.2115,4.6507,4.6507,0,0,1-1.1561-3.347v-9.197h-1.67a.7612.7612,0,0,1-.7867-.8347V46.5315l2.65-.4333.8334-4.4945a.7981.7981,0,0,1,.2974-.4974.9434.9434,0,0,1,.5854-.1767h2.0549v5.1846h4.3338v2.8249h-4.3338v8.9243a1.7488,1.7488,0,0,0,.3853,1.2041,1.3072,1.3072,0,0,0,1.0268.4334,1.8568,1.8568,0,0,0,.6188-.0887,3.3846,3.3846,0,0,0,.4333-.1847c.1227-.064.2321-.1253.3294-.1846a.5481.5481,0,0,1,.288-.088.4561.4561,0,0,1,.2894.088,1.3443,1.3443,0,0,1,.24.2653l1.1881,1.9256a5.9913,5.9913,0,0,1-1.99,1.0914A7.4176,7.4176,0,0,1,290.2785,62.6946Z" fill="#e3a73e"/>
      <path d="M307.0669,49.18a1.054,1.054,0,0,1-.336.3614.8815.8815,0,0,1-.4508.104,1.4167,1.4167,0,0,1-.6174-.16q-.328-.1611-.7627-.3614a6.9436,6.9436,0,0,0-.9868-.3614,4.746,4.746,0,0,0-1.3081-.16A3.0492,3.0492,0,0,0,300.76,49.1a1.5435,1.5435,0,0,0-.6748,1.3,1.2379,1.2379,0,0,0,.3454.8907,3.1108,3.1108,0,0,0,.9148.6341,8.9838,8.9838,0,0,0,1.2921.4894q.7221.2169,1.4775.4733t1.4761.5861a5.1482,5.1482,0,0,1,1.2922.8348,3.6752,3.6752,0,0,1,1.26,2.9129,5.4783,5.4783,0,0,1-.4334,2.1909,4.8246,4.8246,0,0,1-1.2681,1.7335,5.9279,5.9279,0,0,1-2.0629,1.14,9.5911,9.5911,0,0,1-4.4778.2567,9.7669,9.7669,0,0,1-1.5575-.4247,8.639,8.639,0,0,1-1.38-.6421,6.652,6.652,0,0,1-1.1148-.8027l.9147-1.5089a1.2854,1.2854,0,0,1,.4174-.4173,1.1679,1.1679,0,0,1,.6094-.1447,1.2879,1.2879,0,0,1,.6988.2087c.2186.1393.4733.2893.7614.4494a6.7787,6.7787,0,0,0,1.02.4493,4.4759,4.4759,0,0,0,1.4841.2087,3.8675,3.8675,0,0,0,1.2122-.168,2.5735,2.5735,0,0,0,.8347-.4414,1.6616,1.6616,0,0,0,.4814-.634,1.9088,1.9088,0,0,0,.152-.7468,1.3292,1.3292,0,0,0-.3454-.9468,3.0118,3.0118,0,0,0-.9147-.642,8.7893,8.7893,0,0,0-1.3-.4894q-.73-.2171-1.4921-.4734a13.8128,13.8128,0,0,1-1.4922-.6021,5.0568,5.0568,0,0,1-1.3-.8747,3.9757,3.9757,0,0,1-.9161-1.3,4.55,4.55,0,0,1-.344-1.8622,4.7366,4.7366,0,0,1,.4013-1.9262,4.5122,4.5122,0,0,1,1.1788-1.5969,5.855,5.855,0,0,1,1.9429-1.0914,8.0847,8.0847,0,0,1,2.6883-.4094,8.2258,8.2258,0,0,1,3.0976.5621,6.99,6.99,0,0,1,2.3269,1.4768Z" fill="#e3a73e"/>
      <path d="M312.5568,60.255a2.474,2.474,0,0,1,.184-.9468,2.2709,2.2709,0,0,1,.5134-.7707,2.5238,2.5238,0,0,1,.7788-.5134,2.4124,2.4124,0,0,1,.9627-.1927,2.3685,2.3685,0,0,1,.9468.1927,2.3567,2.3567,0,0,1,1.2841,1.2841,2.4338,2.4338,0,0,1,0,1.9016,2.43,2.43,0,0,1-.5134.7627,2.3078,2.3078,0,0,1-.7707.5054,2.4694,2.4694,0,0,1-.9468.1847,2.5153,2.5153,0,0,1-.9627-.1847,2.4126,2.4126,0,0,1-.7788-.5054,2.2826,2.2826,0,0,1-.5134-.7627A2.4538,2.4538,0,0,1,312.5568,60.255Zm4.35-21.0269V48.41a27.6773,27.6773,0,0,1-.1454,2.865q-.144,1.4041-.3853,2.977h-2.68q-.24-1.5721-.3854-2.977a28.0757,28.0757,0,0,1-.144-2.865V39.2281Z" fill="#e3a73e"/>
    </g>
  </g>
</svg>
